<?xml version="1.0" encoding="utf-8"?>
<!-- Generator: Adobe Illustrator 23.0.3, SVG Export Plug-In . SVG Version: 6.00 Build 0)  -->
<svg version="1.1" id="Layer_1" xmlns="http://www.w3.org/2000/svg" xmlns:xlink="http://www.w3.org/1999/xlink" x="0px" y="0px"
	 viewBox="0 0 694.3 405.7" style="enable-background:new 0 0 694.3 405.7;" xml:space="preserve">
<style type="text/css">
	.st0{fill:#BF2F38;}
	.st1{fill:none;}
	.st2{font-family:'HelveticaNeue-Medium';}
	.st3{font-size:40px;}
</style>
<g>
	<path d="M270.2,177.7c2.3-0.1,6.1-0.3,8.2-0.3c11.4,0,15.3,5.9,15.3,12.4c0,7.2-4.4,10.7-13.3,10.7h-10.1V177.7L270.2,177.7z
		 M262.5,224.7c0,5.8-1.5,7.6-9.1,7.6h-2.1v1.8h33.9c14.9,0,20-10.3,20-17.6c0-7.2-5.1-12.9-13.8-15.5v-0.2
		c6.2-1.1,10.6-6,10.6-11.3c0-4.4-1.9-7.6-5.6-10.3c-3.3-2.4-10.5-3.6-18.6-3.6c-1.8,0-8.8,0.1-13.9,0.3c-2.7,0.1-9.1,0.5-11.7,0.6
		v1.8h3.2c6.5,0,7.1,2.8,7.1,8.1V224.7L262.5,224.7z M270.2,202.3h10c10.8,0,16.3,7.3,16.3,14.5c0,7.2-3.5,14.8-15.7,14.8
		c-7.8,0-10.6-2.5-10.6-9.5V202.3L270.2,202.3z"/>
	<path d="M399,178.3v-1.8h-22.5v1.8c5.2,0.3,6.9,1.7,6.9,6.7v39.5c0,6-1.1,7.6-6.4,7.9c-7.1-0.4-10.1-3.1-15.1-8.2l-7.3-7.3
		c-4.3-4.4-7.1-6.9-10.6-9.6c7.6-2.2,12.3-8.1,12.3-15c0-9.4-7.7-16.5-24.8-16.5c-6,0-7.9,0.1-11.7,0.3c-3.8,0.2-9.4,0.6-11.7,0.6
		v1.8h2c5.4,0,6.9,1.7,6.9,7.4v39c0,6.2-1.9,7.7-7.4,7.7h-1.6v1.8h26.2v-1.8h-2.1c-5.2,0-7.4-1.4-7.4-6.9v-15.7
		c1.5,0.1,2.7,0.2,4.7,0.2c2.5,0,4-0.1,6.3-0.2c2.2,1.5,5.5,4.2,9.5,8.2l6.1,6.1c8,8,11.4,10.5,26.5,10h21v-1.8
		c-6.4,0-7.9-1.9-7.9-7.3v-39.3C391.2,179.6,393.2,178.3,399,178.3L399,178.3z M330.6,208.2c-2.1,0-3.5,0.1-5.7-0.2v-30.4
		c1.7-0.2,2.9-0.2,4.6-0.2c14.3,0,18.2,6.7,18.2,15.3C347.6,203.8,340.9,208.2,330.6,208.2L330.6,208.2z"/>
	<path d="M405.3,220c1.9,8.2,8.4,13.1,15.7,13.1c6.2,0,12.8-3.6,12.8-10.9c0-13.3-29.7-17.4-29.7-33.6c0-7.7,7-13.4,16.5-13.4
		c7.8,0,9.4,2.3,12.6,2.3c0.7,0,1.1-0.2,1.7-0.9h1.5l1.6,11.8h-1.6c-2.6-6.7-8.5-10.9-14.9-10.9c-6.1,0-10.4,3.5-10.4,8.7
		c0,13.2,29.7,16.7,29.7,33.7c0,9.1-8.1,15.8-18.9,15.8c-5.1,0-11.6-2.5-12.9-2.5c-0.8,0-1.5,0.5-1.9,1h-1.6l-1.9-14.1H405.3
		L405.3,220z"/>
	<path d="M476.4,225.6c0,5,1.7,6.8,7.3,6.8h3.4v1.8h-29.2v-1.8h3.4c5.6,0,7.3-1.8,7.3-6.8v-45.8h-16.1c-3.7,0-5.4,2.1-6.8,10.3h-1.7
		l1.5-15h1.8c0.1,0.6,0.5,0.9,1,1.1c0.6,0.2,1.2,0.3,1.9,0.3h44.5c1.3,0,2.7-0.3,2.9-1.4h1.8l1.5,15h-1.7
		c-1.4-8.2-3.1-10.3-6.8-10.3h-16.1V225.6L476.4,225.6z"/>
	<path d="M560,206.8c0,13.2-7.2,26.5-22.3,26.5c-14.9,0-26.7-12.2-26.7-29.5c0-11.1,6.5-26.3,22.8-26.3
		C549.1,177.4,560,189.6,560,206.8L560,206.8z M568.7,203.7c0-16.7-15-28.6-32.5-28.6c-19.7,0-33.9,13.1-33.9,31.5
		c0,17.3,15.3,29,33.4,29C553.7,235.6,568.7,222.4,568.7,203.7L568.7,203.7z"/>
	<path d="M611.8,234.1h-41.4v-1.8h3.1c4.3,0,5.8-1.4,5.8-6.1v-41c0-4.9-1.5-6.9-7.3-6.9h-1.3v-1.8H598v1.8h-3.4
		c-6,0-7.6,0.6-7.6,6.4v42.7c0,2.5,1,3.4,3.7,3.4h13.6c5.5,0,7.1-2.1,13-10.2h1.7L611.8,234.1L611.8,234.1z"/>
	<path class="st0" d="M179.1,150c-0.1-5.4-1.9-16.4-14.8-22.7c13.1,4.2,19.4,15.2,20,23.5c13.7,2.7,26,9.2,45.8,2.4l0.1,0
		c0,0-26.1,0.2-37-7.6c5.6,0.2,12.1-1.1,14.2-4.2c2.3-3.4,2.5-6.9,8.1-7.1c3.1-0.1,13.8,0.7,14.9-14.9c-3.4,5.7-7.1,8.1-12.6,6.7
		c-3.5-0.9-10-3.6-14.7,1.9c-3.8,4.6-7.9,6.9-14.5,6.2c2.6-3.5,41.7-54.3,41.7-54.3s-50,40.2-52.8,42.5c-0.5-7.3,1.7-10,4.6-13.2
		c2.4-2.6,6.6-6.2,3.3-13.7c-2.7-6.1-2.3-9.8,5-15.6c-5.8,0.4-14.8,4.4-13.7,15.1c0.6,6.5-4,7-5.6,8c-4.4,2.4-4.9,9.4-5.1,14.9
		c-0.5-1.8-6.8-29-9.1-37.8c0,0,0,73.3,0,73.3h0.2C165.5,149.8,172.6,149.3,179.1,150L179.1,150z"/>
	<path d="M303.6,110.4v1.3c-4.6,0.1-6.2,1.9-6.2,6.3v18.5c0,8.5-5.4,17.6-20.3,17.6c-13.1,0-19.8-7.5-19.8-17.3v-20.1
		c0-4.4-1.2-5.1-5.9-5.2v-1.3h17.6v1.3h-0.6c-3.8,0-5.4,1-5.4,5v19.1c0,9.3,5.4,14.8,15.7,14.8c7.8,0,15.7-3.2,15.7-14.9v-16
		c0-6.6-1-7.8-6.7-8v-1.3H303.6L303.6,110.4z"/>
	<path d="M312.6,147.2c0,3.8,0.9,4.7,4.6,4.7v1.3h-13.8v-1.3c3,0,4.6-1.6,4.6-4.3v-14.4c0-2.5-0.3-3-2.1-3.4l-2.3-0.5v-1.1l7.9-2.9
		h1.1v5.4c4.6-2.9,8.4-5.4,11.8-5.4c4.7,0,7.3,3.4,7.3,10.3c0,9.1-0.5,10.9-0.5,13.6c-0.1,1.9,1,2.7,3.8,2.7h1.5v1.3h-14.8v-1.3
		c2-0.1,3.2-0.5,3.9-1.3c1.3-1.3,1.4-6.3,1.4-15.5c0-5.5-2.7-7.2-5.4-7.2c-2.2,0-5.6,1.9-9.1,4.4V147.2L312.6,147.2z"/>
	<path d="M349.7,147.9c0,2.4,1.3,3.9,4.9,3.9v1.3h-15.2v-1.3c4.2,0,5.7-1.4,5.7-5V133c0-2.7-0.3-3-2.1-3.4l-3.2-0.6v-1.1l8.9-3.1h1
		V147.9L349.7,147.9z M346.9,109.4c1.6,0,3,1.2,3,2.6c0,1.4-1.4,2.6-3,2.6c-1.6,0-3-1.2-3-2.6C343.9,110.6,345.2,109.4,346.9,109.4
		L346.9,109.4z"/>
	<path d="M370.3,153.8l-10-22.8c-1-2.4-1.9-3.2-3-3.4l-2.1-0.3V126h14v1.2c-4.2,0.1-5.5,0.7-3.8,3.9l7.3,17.1l7-15.9
		c1.2-2.8,0.6-4.8-4.4-5.2V126h11.9v1.2c-2.6,0.5-4.1,2-5.4,5l-9.5,21.6H370.3L370.3,153.8z"/>
	<path d="M393,133.9c1.6-6.4,5-7.4,7.3-7.4c3.3,0,6,3,6.8,7.4H393L393,133.9z M412.8,135.7v-1.6c-2.3-2.3-2.1-8.9-11.3-8.9
		c-8.4,0-13.3,7.4-13.3,14.7c0,8,5.2,14.1,11.9,14.1c5,0,9.3-3.4,12.2-7.1l-0.8-0.8c-2.6,3.1-5.3,4.5-8.7,4.5
		c-5.4,0-10.4-4.8-10.4-11.9c0-0.9,0.1-1.9,0.3-2.9H412.8L412.8,135.7z"/>
	<path d="M426.1,148.1c0,2.8,1,3.7,4.5,3.7h2.6v1.3h-16.3v-1.3c3.5-0.1,4.6-1.5,4.6-5.2v-15.9l-4.6-1.6V128l7.8-2.7h1.4v7.3h0.1
		c3.4-5.6,4.3-6.9,6.5-6.9c0.8,0,1,0.1,2.3,0.6c0.7,0.3,1.9,0.5,3.6,1l-1.6,4.1c-1-0.1-2.3-0.5-3.6-1.1c-0.8-0.3-1.6-0.7-2.4-0.7
		c-1.2,0-2,0.8-2.7,1.8c-0.9,1.2-1.6,2.4-2.2,3.4V148.1L426.1,148.1z"/>
	<path d="M443.4,146.2c0.8,4.1,3.4,6.5,6.5,6.5c2.7,0,4.9-2.1,4.9-4.5c0-1.4-0.3-2.3-2.2-4.2c-4.9-4.9-10.3-5.4-10.3-11.1
		c0-4.5,3.6-7.7,8.8-7.7c1.9,0,3.8,0.4,5.5,1.1l0.1,6.2h-1.2c-0.5-3.5-2.8-5.7-5.5-5.7c-2.3,0-4.2,1.6-4.2,3.8
		c0,6,12.8,7.1,12.8,15.5c0,4.5-3.7,7.8-8.5,7.8c-1.3,0-2.3-0.2-3-0.5c-0.8-0.2-1.3-0.4-1.9-0.4c-0.4,0-0.8,0.3-1.2,0.8h-1l-0.8-7.7
		H443.4L443.4,146.2z"/>
	<path d="M473.2,147.9c0,2.4,1.3,3.9,4.9,3.9v1.3h-15.2v-1.3c4.2,0,5.7-1.4,5.7-5V133c0-2.7-0.3-3-2.1-3.4l-3.2-0.6v-1.1l8.9-3.1h1
		V147.9L473.2,147.9z M470.3,109.4c1.7,0,3,1.2,3,2.6c0,1.4-1.4,2.6-3,2.6c-1.6,0-3-1.2-3-2.6C467.4,110.6,468.7,109.4,470.3,109.4
		L470.3,109.4z"/>
	<path d="M497.7,126l-1.1,3h-8.7v16c0,4.3,3.1,5.8,4.5,5.8c1.5,0,2.9-1.2,4.2-3.4l1.1,1c-1.6,3.6-4.3,5.6-7.5,5.6
		c-4.1,0-6.9-3.4-6.9-8v-17h-3.2v-1.1c2.7-1.3,5-4.5,6.6-8.7h1.2v6.8H497.7L497.7,126z"/>
	<path d="M524.8,133.6c2.1-5.2,0.8-6.2-3.3-6.4V126h11.4v1.2c-2.8,0.3-4.4,2.3-5.7,5.5l-11.7,29.1c-2.1,5.1-3.6,7.3-6,7.3
		c-1.7,0-2.8-1-2.8-2.4c0-2.8,4-2.1,5.7-3.8c0.8-0.8,1.8-2.5,2.3-3.9l2.1-5.2l-10.6-22.6c-1.3-2.8-2.5-4-5.4-4.1V126h13.8v1.2
		c-4.2,0.1-4.7,1.3-3.3,4.2l7.8,16.8L524.8,133.6L524.8,133.6z"/>
	<path d="M553.5,137.4c0-5.9,4.2-10.6,8.7-10.6c5.8,0,10.6,6.7,10.6,14.5c0,6.9-4.6,11-8.7,11C558.2,152.3,553.5,145.7,553.5,137.4
		L553.5,137.4z M548.3,139.8c0,8,6.5,14.2,15,14.2c8.2,0,14.6-6.2,14.6-14.4c0-8.2-6.4-14.4-14.8-14.4
		C556,125.2,548.3,130.3,548.3,139.8L548.3,139.8z"/>
	<path d="M597.9,129h-7.4v18.8c0,3.2,1.2,4.1,5.1,4.1h2.6v1.3h-17v-1.3c4,0,4.7-0.9,4.7-4.7V129h-5.1v-1.2c1.9-0.4,3.6-1,5.1-1.9
		c0-5.7,1.2-10,5.3-14.1c3.4-3.4,6.6-4.9,9.8-4.9c3.8,0,7.1,2.2,7.1,3.2c0,0.5-1.3,3.3-1.9,3.3c-1,0-3.5-3.4-8-3.4
		c-4.9,0-7.6,3.9-7.6,10.6v5.2h6.9L597.9,129L597.9,129z"/>
	<path class="st0" d="M149.3,79.8c0,0,0,72.2,0,73.3c-29.5-11.6-41.8,10.9-73.2,0c0,0.3,0-73.3,0-73.3H91v7.9h8.6l0-7.9h8.4l0,7.9
		l8.5,0l0-7.9h8.5v7.9l9.2,0v-7.9H149.3L149.3,79.8z M95,101.2c3.4,0.2,7.5-1.9,7.7-2.1c0,0-1.4,3.6,1.8,3.4c3.5-0.2,7.4-2,8-2.3
		v-4.6c-0.3,0.2-3.7,2.6-7.5,3.5c-1.4,0.3-0.9-0.9-0.8-1.6c0.1-0.7,0.2-1.3-2.3-0.2c-10.2,4.2-10.8,1.3-10.8,1
		C90.8,98.6,90.9,100.9,95,101.2L95,101.2z M124.9,101.4c0,0-13.3,1.9-17.1,2.3c-2.6,1.6-5.7,5.9-5.7,5.9s-3.1,0.5-9.3,1.6
		c-4.3,2.8-6.9,9.4-1.6,14.8c-1.7-0.4-1.7-0.4-4.2-0.8c-5.3,3.4-2.8,9.7,8.2,7.5c-3.1-0.1-4.7-1.6-4.6-3.6c-0.1-2.2,4.1-4.9,9.3-3.5
		c-4.9-9.2,0.5-12.9,0.5-12.9s-2.9,7.6,3.4,13.9c0.6-0.9,2.4-3.5,7.7-3.6c5.3-0.1,8.6,2.5,8.6,5.5c0.1,2.6-3.3,5.4-7.6,5.4l-0.1-6.3
		c0,0-1.4,0.5-1.8,1.1c0,0.3,0,5.3,0,5.3c-1.7,0-5.2-0.7-7-3.6c-1.4-0.1-9.3-1.3-9.3-1.3l0.4,2.1c0,0,2.8,0.5,3.3,3.2
		c0.6,3.3,2.6,6.4,4.2,7.6c3.3-0.4,8.7-4.5,18.8-4.4c-9.2,1.3-18.6,11.1-32,7.4c21.4,7.3,23.6-8.9,50.4-3.8
		c-4.2-2.5-10.4-3.3-10.4-3.3s3.3-3.6,3.5-9.1c0.4,0,1-0.1,2.1-0.2c0.4-1.8,0.6-3.6,0.6-3.6s-5.8,0-10.7,0
		C112.4,112.7,124.9,101.4,124.9,101.4L124.9,101.4z M130,119.5c-0.6-3-0.3-9.1,2.7-15c-11,8.3-11.1,15-11.1,15
		S123.7,117.9,130,119.5L130,119.5z"/>
	<path class="st0" d="M230.1,160.7c0-1.2,0,73.4,0,73.4c-40.6,9.9-41.8-11.7-73.2,0c0,1,0-73.4,0-73.4
		C185.8,148.6,197,171.5,230.1,160.7L230.1,160.7z M213.8,169c-6.5,2.3-5.6,9.3-3.8,12c2.3,3.5,4.2,3.6,5.7,7.8
		c1.1,3.2-0.9,4.9-2.9,5.7c3.5,2.1,7-0.1,8.3-2.2c2.3-3.1-0.3-7.2,2.2-9.3c0.7-0.6,1.8-1,3.3-1c-1.5-2.2-5.1-1.9-6.5,0.1
		c-1-2.3-3.8-4.4-2.8-8c0.7-2.4,4.4-3.3,5.8-1.3c0.8,1.1,0.9,3.2-1.4,4.2c1.4-0.1,4.1-2.5,2.3-5.9c-1.3-2.3-3.5-2.5-5.2-2.5
		c-3.2,0-8.6,3.7-5.2,11.6C211.6,178.4,208.4,172.3,213.8,169L213.8,169z M172.5,183.2c0,0-1,1.3,0.1,1.6c0,0.4,0.2,1.1,0.3,1.5
		c0.2,0.5,0.5,0.3,0.9-0.1c0.4-0.4,1-1.2,1.4-1.7c0.4-0.4,1.8-0.3,1.2,0.6c-0.4,0.6-0.7,0.7-1.1,0.8c-0.4,0.1-0.5-0.2-0.9,0.3
		c-0.4,0.6-0.9,1-0.1,1c0.4,0,1.2,0.4,1.7,0.3c0.5-0.1,0.5-0.4,0.6-0.8c0.1-0.4,0-0.7,0.5-1c0.6-0.4,1.6-1.2,1.9-1.5
		c0.3-0.3,0.7-0.3,1.2-0.3s2.5,0.2,3.7-1.6c0.9-1.3,1-3.1,0.6-4.6c0.6,0.6,1.4,2.4,1,4.1c-0.7,3.1-2.2,3.2-3.8,3.6
		c-0.6,0.9-2.3,3.2-3.1,7.4c-0.4,0.2-3.5,3.2-0.9,8.1c-0.7,0.2-2.6,1.1-3.8,1.3c-0.8,0.2-1.4,0.2-1.7,0.6c-0.4,0.4-1.2,1.8-0.7,2.5
		c0.3,0.5,2.2,4.8,2.4,6.1c0.2,1.3,0.6,1.6,1.1,2.1c0.5,0.5,0.9,0.5,1.6,1c0.8,0.6,1.4,1.6,2.1,2.1c0.7,0.6,1.6,0.8,2.2,0.8
		c-0.1-2.2-0.6-4.3-1.3-5c-0.7-0.7-1.6,0.3-1.8,0.4c-0.2,0.1-0.5-0.2-0.6-0.7c-0.1-0.6,0.4-1.1-0.1-1.9c-1-1.5-1.9-3.2-2-3.4
		c-0.7-1.4,0.5-1.7,0.8-1.6c0.7,0.2,4.8,0.7,5.5,0.8c0.6,0.1,1,0.2,1.3-0.2c0.9-1,1.4-1.7,1.9-2.7c0.9,0.7,0.3,2,0,3.6
		c0.3,0.2,6.3,3.3,14.5,1.1c3.4-0.9,3.1-0.2,3.4,0.4c2,3.9,3.4,5.4,5.8,7.3c0.7,0.6,1.2,1.5,1.5,2c0.3,0.5,0.4,1.5,0.1,2.1
		c-0.3,0.8-2.2,4.1-2.5,4.5c-0.6,0.9-1.4,1.6-2.1,2c-2.1,1.1-2.6,2.1-2.8,2.9c0.5,0,5.4,0,5.4,0s0.1-0.3,0.1-0.9
		c-0.1-0.9,0.8-1.1,1-1.2c0.3-0.1,0.7,0.2,1.2-0.8c0.8-1.9,3.9-7.2,4.2-7.7c0.3-0.5,1.2-1.8,0.3-2.3c-1.8-1.1-2.9-2.8-3.2-4.8
		c-0.1-0.8-0.1-2.1,1.7-4.2c3.8-4.7,1-14.3-7.4-14.1c-4.7,0.1-7.4-0.3-10.5-0.9c-1.1-0.2-1.3-0.8-1.1-1.5c0.2-0.7,0.5-2.1,0.5-2.7
		c-0.8-0.7-2.1-1.2-2.7-1.4c-0.6-0.2-1-0.7-0.3-0.8c0.7-0.1,3.1,0.2,3.1,0.2s0.1-1.3-0.3-3.3c-1.1-0.5-2.4-0.9-3.8-1
		c-0.4,0-0.7-0.5,0.2-0.6c1.2-0.2,2.4,0,3.3,0c0.1-0.1-0.4-2.6-1.3-3.6c-0.6-0.2-0.9-0.3-3.1-0.5c-0.7-0.1-0.8-0.3-0.3-0.5
		c0.6-0.2,1.5-0.4,2.7-0.3c-0.5-0.6-3.5-6.3-9.9-4.6c0.7,0.9,1.1,1.3,1.3,1.9c0.2,0.5-0.4,0.7-0.9,0.2c-2-2.1-3.1-2.1-4.4-2.3
		c0.8,0.8,1.2,1.6,1.5,2.5c-1.5,1-3.5,3.5-3.8,4c-0.6,0.9,0.2,1.4,0.2,1.4L172.5,183.2L172.5,183.2z M175.5,197.2
		c-3-1.2-3.6-2-4.2-2.2c-0.5-0.2-2.5,0.7-2.9,1.5c-0.9,2.4-3,6.2-3.3,6.8c-0.2,0.3-0.3,0.6-0.3,1c0,0.4,0.2,1.9,0.1,2.3
		c0,0.4,0,0.8,0.2,1.2s0.3,1.9,1.1,3.4c1.7-1.7,2-4.3,1.9-3.8c0,0,0.5-0.9-0.8-1.4c-0.4-0.1-0.3-1.1,0.1-1.3c0.5-0.2,0.8-0.3,1-1.2
		c0.2-0.9,1.2-4.2,1.5-4.9c0-0.1,0.1-0.3,0.3-0.3c0.3-0.1,0.6-0.2,0.8-0.3c0.1,0,0.4,0.1,0.5,0.2c0.5,0.5,2.9,2.5,2.9,2.5
		s1.1-0.1,1.8-0.4C175.7,199.7,175.5,198,175.5,197.2L175.5,197.2z M202.7,216.6c-1.2,1-4.8,2.8-5.7,3.2c-0.9,0.4-1.2,0.7-1.9,2
		c-0.8,1.6-1.6,4.5-1.4,4.7c2.2-0.4,3.8-2.2,3.8-2.2s0-0.5-0.5-1.2c-0.4-0.6,0.4-1.3,0.9-0.9c0.4,0.3,0.9,0.4,1.2,0.1
		c0.3-0.3,7.3-4.7,7.6-5.2c-1.4-1.4-2.5-2.8-2.5-2.8S203.8,215.7,202.7,216.6L202.7,216.6z M177.4,179.6c0,0-0.3-0.2,0.3-0.7
		c0.1-0.1,0.2,0.1,0.6,0.1c0.5,0,0.8-0.2,1.2-0.7c0.7-0.8-0.7-1.1-1.2-0.7c-0.5,0.4-0.8,0.8-1.3,1.2
		C177.1,178.8,176.4,179.4,177.4,179.6L177.4,179.6z"/>
	<path class="st0" d="M149.3,160.7c0,0,0,74.4,0,73.4c-31.4-11.7-32.6,9.9-73.2,0c0,0,0-74.6,0-73.4
		C109.1,171.5,120.4,148.6,149.3,160.7L149.3,160.7z M99.4,208.9c-0.3,3.1-2,3.6-2,3.6c-3.1-1.4-4.8,2.5-2.2,3.7
		c3.3,1.5,5.3-2.8,5.5-3.6c0.6-2.2,0.6-3.8,0.4-7.5c-0.2-3.1,0.6-3.6,1.1-3.7c0.5-0.1,1.6-0.1,2.6,3.1c1.1,3.2,3.4,3.7,3.4,3.7
		s-3.3-5.4,1.3-10.4c2.2-2.3,6.5-3.6,5.7-6.9c0,0-0.7,1.2-2,1.5c-1.3,0.3-3.9,0.7-3.9,0.7s6.1-2.9,7.2-6.2c0,0,1.9,3.2-0.6,7.9
		c0,0,2.4-0.9,5.1,0.3c6.7,3,6,12.5-2.5,14.8c-12,3.2-7.7,12.5-0.8,13.1c-0.7-0.5-0.9-3.3,0.3-4.9c0.6-0.5,1.7-1.6,2.4,0.7
		c1.2,4,4.7,4.4,6.4,3.9c-0.4-0.4-1.2-1.6-1.1-2.3c0.2-1.4,2,0.1,2.6,0.2c4.7,1.3,7.3,0.2,7.5-0.5c-1.1-0.2-0.9-0.1-1.5-0.3
		c-0.6-0.2-1.8-1,0.4-1.5c4.2-1,6.5-5.3,3.7-8.6c-2.6-3.2-6-2.7-7-2.3c4.5,1,4.8,4.6,2.5,6.5c-2,1.5-7,2.1-8.7-1.2
		c-1.1,0.8-1.5,2-1.3,3.6c-0.5-0.2-2.4-2.9,0.5-5.1c13.1-8.4,11-22.6-0.1-28.5l-0.1-0.1c-10.1-5.8-18.9-0.5-18.9-0.5
		c6.2-6.2,17-2.5,18.5-1.8c0,0-1.2-1.1-1.9-2.1c-0.9-1.3-0.8-2.5-0.8-2.5c-4.3,2.4-5.4-1.3-5.4-1.3s-3.7,3.3-6.1,0.6
		c-2.1-2.4,1.3-5.6,1.3-5.6c-21.6,7.1-17.5,19.3-17.5,19.3s-3.1,2.9-3.8,9.8c-0.8,7.9,3.1,13.5,8,11.9
		C98.6,210.1,99.1,209.6,99.4,208.9L99.4,208.9L99.4,208.9z M98.3,204.3c1.1-0.1,1.2-1.4,1-2.1c-0.2-0.8-1.6-0.9-1.9,0.1
		c-0.3,1,0,2,0,2c0.3,1,1.4,1.3,1.5,1.2C98.2,204.9,98.4,204.6,98.3,204.3L98.3,204.3z M102.7,202.6c0,0-1.3,0.8,0.3,4.4
		c1.6,3.5,3.6,6.8,0.1,10.7c2,0,6.3-2.6,1.7-10.3C103.8,205.5,102.6,204.3,102.7,202.6L102.7,202.6z"/>
</g>
<rect x="74.9" y="268.5" class="st1" width="542" height="110.9"/>
<text transform="matrix(1 0 0 1 74.9363 297.0217)" class="st2 st3">Faculty of Health Sciences</text>
</svg>
